<svg width="60" height="60" fill="none" xmlns="http://www.w3.org/2000/svg"><circle cx="30" cy="30" r="30" fill="#2C2C2C"/><circle cx="30" cy="30" r="22" fill="#7A66CC"/><path d="M41.998 30c0-6.628-5.372-12-11.999-12C23.372 18 18 23.372 18 30c0 5.988 4.388 10.952 10.124 11.852v-8.384h-3.046v-3.469h3.046v-2.643c0-3.008 1.792-4.669 4.532-4.669 1.313 0 2.686.235 2.686.235v2.952H33.83c-1.49 0-1.955.925-1.955 1.874V30h3.328l-.532 3.469h-2.796v8.384c5.736-.9 10.124-5.864 10.124-11.853z" fill="#fff"/></svg>