<svg width="60" height="60" fill="none" xmlns="http://www.w3.org/2000/svg"><circle cx="30" cy="30" r="30" fill="#2C2C2C"/><circle cx="30" cy="30" r="22" fill="#7A66CC"/><g clip-path="url(#clip0_1_194)"><path d="M41.499 24.203a3.008 3.008 0 00-2.089-2.089c-1.87-.5-9.4-.5-9.4-.5s-7.509-.01-9.399.5a3.008 3.008 0 00-2.088 2.09A31.26 31.26 0 0018 30.01a31.26 31.26 0 00.523 5.785 3.01 3.01 0 002.088 2.09c1.869.501 9.4.501 9.4.501s7.508 0 9.399-.502a3.008 3.008 0 002.089-2.09c.346-1.908.513-3.845.5-5.784a31.26 31.26 0 00-.5-5.808v.001zm-13.891 9.4v-7.196l6.266 3.604-6.266 3.592z" fill="#fff"/></g><defs><clipPath id="clip0_1_194"><path fill="#fff" transform="translate(18 18)" d="M0 0h24v24H0z"/></clipPath></defs></svg>