<svg width="1110" height="27" fill="none" xmlns="http://www.w3.org/2000/svg"><path d="M1002.82 13.268c0-2.076.34-3.696 1.04-4.86.71-1.176 1.92-1.764 3.64-1.764 1.71 0 2.92.588 3.61 1.764.71 1.164 1.07 2.784 1.07 4.86 0 2.1-.36 3.744-1.07 4.932-.69 1.176-1.9 1.764-3.61 1.764-1.72 0-2.93-.588-3.64-1.764-.7-1.188-1.04-2.832-1.04-4.932zm7.34 0c0-.972-.07-1.794-.2-2.466-.12-.672-.37-1.218-.75-1.638-.39-.432-.96-.648-1.71-.648-.76 0-1.33.216-1.71.648-.39.42-.65.966-.78 1.638-.12.672-.18 1.494-.18 2.466 0 1.008.06 1.854.18 2.538.12.684.37 1.236.76 1.656.39.42.97.63 1.73.63.75 0 1.32-.21 1.71-.63.39-.42.65-.972.77-1.656.12-.684.18-1.53.18-2.538zm4.19 0c0-2.076.35-3.696 1.04-4.86.71-1.176 1.92-1.764 3.64-1.764 1.71 0 2.92.588 3.62 1.764.7 1.164 1.06 2.784 1.06 4.86 0 2.1-.36 3.744-1.06 4.932-.7 1.176-1.91 1.764-3.62 1.764-1.72 0-2.93-.588-3.64-1.764-.69-1.188-1.04-2.832-1.04-4.932zm7.34 0c0-.972-.06-1.794-.2-2.466-.12-.672-.37-1.218-.75-1.638-.39-.432-.96-.648-1.71-.648-.76 0-1.33.216-1.71.648-.39.42-.64.966-.78 1.638-.12.672-.18 1.494-.18 2.466 0 1.008.06 1.854.18 2.538.12.684.38 1.236.76 1.656.4.42.97.63 1.73.63.75 0 1.32-.21 1.71-.63.39-.42.65-.972.77-1.656.12-.684.18-1.53.18-2.538zm5.29 6.858c-.38 0-.69-.126-.94-.378a1.28 1.28 0 01-.38-.936c0-.372.13-.684.38-.936s.56-.378.94-.378c.36 0 .66.126.91.378.26.252.38.564.38.936 0 .372-.12.684-.38.936-.25.252-.55.378-.91.378zm0-7.56c-.38 0-.69-.126-.94-.378a1.28 1.28 0 01-.38-.936c0-.372.13-.684.38-.936s.56-.378.94-.378c.36 0 .66.126.91.378.26.252.38.564.38.936 0 .372-.12.684-.38.936-.25.252-.55.378-.91.378zm4.44 4.644a65.687 65.687 0 002.72-2.448 11.52 11.52 0 001.68-2.016c.44-.696.66-1.392.66-2.088 0-.72-.17-1.284-.52-1.692-.34-.408-.87-.612-1.6-.612-.71 0-1.26.228-1.66.684-.38.444-.59 1.044-.61 1.8h-1.98c.04-1.368.44-2.412 1.22-3.132.8-.732 1.8-1.098 3.01-1.098 1.31 0 2.33.36 3.06 1.08.74.72 1.12 1.68 1.12 2.88 0 .864-.23 1.698-.67 2.502a9.624 9.624 0 01-1.57 2.142c-.6.624-1.36 1.35-2.3 2.178l-.81.72h5.71v1.71h-8.75v-1.494l1.29-1.116zm10.39 0a65.687 65.687 0 002.72-2.448 11.52 11.52 0 001.68-2.016c.44-.696.66-1.392.66-2.088 0-.72-.17-1.284-.52-1.692-.34-.408-.87-.612-1.6-.612-.71 0-1.26.228-1.66.684-.38.444-.59 1.044-.61 1.8h-1.98c.04-1.368.44-2.412 1.22-3.132.8-.732 1.8-1.098 3.01-1.098 1.31 0 2.33.36 3.06 1.08.74.72 1.12 1.68 1.12 2.88 0 .864-.23 1.698-.67 2.502a9.624 9.624 0 01-1.57 2.142c-.6.624-1.36 1.35-2.3 2.178l-.81.72h5.71v1.71h-8.75v-1.494l1.29-1.116zm17.14-4.59v1.728h-7.4V12.62h7.4zm2.65.648c0-2.076.35-3.696 1.04-4.86.71-1.176 1.92-1.764 3.64-1.764 1.71 0 2.92.588 3.62 1.764.7 1.164 1.06 2.784 1.06 4.86 0 2.1-.36 3.744-1.06 4.932-.7 1.176-1.91 1.764-3.62 1.764-1.72 0-2.93-.588-3.64-1.764-.69-1.188-1.04-2.832-1.04-4.932zm7.34 0c0-.972-.06-1.794-.2-2.466-.12-.672-.37-1.218-.75-1.638-.39-.432-.96-.648-1.71-.648-.76 0-1.33.216-1.71.648-.39.42-.64.966-.78 1.638-.12.672-.18 1.494-.18 2.466 0 1.008.06 1.854.18 2.538.12.684.38 1.236.76 1.656.4.42.97.63 1.73.63.75 0 1.32-.21 1.71-.63.39-.42.65-.972.77-1.656.12-.684.18-1.53.18-2.538zm5.32 3.942c1.15-.996 2.06-1.812 2.72-2.448.67-.648 1.23-1.32 1.67-2.016.45-.696.67-1.392.67-2.088 0-.72-.17-1.284-.52-1.692-.34-.408-.87-.612-1.6-.612-.71 0-1.26.228-1.66.684-.38.444-.59 1.044-.61 1.8h-1.98c.03-1.368.44-2.412 1.22-3.132.79-.732 1.8-1.098 3.01-1.098 1.31 0 2.33.36 3.06 1.08.74.72 1.11 1.68 1.11 2.88 0 .864-.22 1.698-.66 2.502a9.947 9.947 0 01-1.57 2.142c-.6.624-1.37 1.35-2.3 2.178l-.81.72h5.7v1.71h-8.74v-1.494l1.29-1.116zm10.36 2.916c-.38 0-.69-.126-.94-.378a1.28 1.28 0 01-.38-.936c0-.372.13-.684.38-.936s.56-.378.94-.378c.36 0 .66.126.91.378.26.252.38.564.38.936 0 .372-.12.684-.38.936-.25.252-.55.378-.91.378zm0-7.56c-.38 0-.69-.126-.94-.378a1.28 1.28 0 01-.38-.936c0-.372.13-.684.38-.936s.56-.378.94-.378c.36 0 .66.126.91.378.26.252.38.564.38.936 0 .372-.12.684-.38.936-.25.252-.55.378-.91.378zm11.77-3.924h-6.03v3.582c.25-.336.62-.618 1.12-.846a3.8 3.8 0 011.6-.342c1.01 0 1.82.216 2.45.648.63.432 1.08.978 1.35 1.638.27.66.41 1.356.41 2.088 0 .888-.17 1.68-.52 2.376a3.803 3.803 0 01-1.53 1.62c-.67.396-1.5.594-2.49.594-1.3 0-2.35-.324-3.15-.972-.79-.648-1.26-1.506-1.42-2.574h2c.13.564.43 1.014.88 1.35.46.324 1.03.486 1.71.486.85 0 1.49-.258 1.91-.774.43-.516.65-1.2.65-2.052 0-.864-.22-1.524-.65-1.98-.43-.468-1.07-.702-1.91-.702-.59 0-1.08.15-1.49.45-.4.288-.69.684-.87 1.188h-1.94V6.842h7.92v1.8zm2.78 8.622v-1.548l6.05-8.676h2.49v8.442h1.67v1.782h-1.67V20h-2.02v-2.736h-6.52zm6.61-8.136l-4.25 6.354h4.25V9.128zM22 14.5L0 27V2l22 12.5z" fill="#fff"/><path stroke="#fff" stroke-width="2" d="M67 13h887"/><path stroke="#7A66CC" stroke-width="2" d="M67 13h70m0-9v20"/></svg>