<svg width="540" height="27" fill="none" xmlns="http://www.w3.org/2000/svg"><path d="M432.5 13.268c0-2.076.348-3.696 1.044-4.86.708-1.176 1.92-1.764 3.636-1.764 1.716 0 2.922.588 3.618 1.764.708 1.164 1.062 2.784 1.062 4.86 0 2.1-.354 3.744-1.062 4.932-.696 1.176-1.902 1.764-3.618 1.764s-2.928-.588-3.636-1.764c-.696-1.188-1.044-2.832-1.044-4.932zm7.344 0c0-.972-.066-1.794-.198-2.466-.12-.672-.372-1.218-.756-1.638-.384-.432-.954-.648-1.71-.648s-1.326.216-1.71.648c-.384.42-.642.966-.774 1.638-.12.672-.18 1.494-.18 2.466 0 1.008.06 1.854.18 2.538.12.684.372 1.236.756 1.656.396.42.972.63 1.728.63s1.326-.21 1.71-.63c.396-.42.654-.972.774-1.656.12-.684.18-1.53.18-2.538zm4.187 0c0-2.076.348-3.696 1.044-4.86.708-1.176 1.92-1.764 3.636-1.764 1.716 0 2.922.588 3.618 1.764.708 1.164 1.062 2.784 1.062 4.86 0 2.1-.354 3.744-1.062 4.932-.696 1.176-1.902 1.764-3.618 1.764s-2.928-.588-3.636-1.764c-.696-1.188-1.044-2.832-1.044-4.932zm7.344 0c0-.972-.066-1.794-.198-2.466-.12-.672-.372-1.218-.756-1.638-.384-.432-.954-.648-1.71-.648s-1.326.216-1.71.648c-.384.42-.642.966-.774 1.638-.12.672-.18 1.494-.18 2.466 0 1.008.06 1.854.18 2.538.12.684.372 1.236.756 1.656.396.42.972.63 1.728.63s1.326-.21 1.71-.63c.396-.42.654-.972.774-1.656.12-.684.18-1.53.18-2.538zm5.285 6.858c-.372 0-.684-.126-.936-.378a1.271 1.271 0 01-.378-.936c0-.372.126-.684.378-.936s.564-.378.936-.378c.36 0 .666.126.918.378s.378.564.378.936c0 .372-.126.684-.378.936a1.25 1.25 0 01-.918.378zm0-7.56c-.372 0-.684-.126-.936-.378a1.271 1.271 0 01-.378-.936c0-.372.126-.684.378-.936s.564-.378.936-.378c.36 0 .666.126.918.378s.378.564.378.936c0 .372-.126.684-.378.936a1.25 1.25 0 01-.918.378zm3.063 4.698v-1.548l6.048-8.676h2.484v8.442h1.674v1.782h-1.674V20h-2.016v-2.736h-6.516zm6.606-8.136l-4.248 6.354h4.248V9.128zm13.616-.666L474.941 20h-2.07l5.058-11.322h-6.66V6.932h8.676v1.53zm9.64 4.158v1.728h-7.398V12.62h7.398zm2.645.648c0-2.076.348-3.696 1.044-4.86.708-1.176 1.92-1.764 3.636-1.764 1.716 0 2.922.588 3.618 1.764.708 1.164 1.062 2.784 1.062 4.86 0 2.1-.354 3.744-1.062 4.932-.696 1.176-1.902 1.764-3.618 1.764s-2.928-.588-3.636-1.764c-.696-1.188-1.044-2.832-1.044-4.932zm7.344 0c0-.972-.066-1.794-.198-2.466-.12-.672-.372-1.218-.756-1.638-.384-.432-.954-.648-1.71-.648s-1.326.216-1.71.648c-.384.42-.642.966-.774 1.638-.12.672-.18 1.494-.18 2.466 0 1.008.06 1.854.18 2.538.12.684.372 1.236.756 1.656.396.42.972.63 1.728.63s1.326-.21 1.71-.63c.396-.42.654-.972.774-1.656.12-.684.18-1.53.18-2.538zm4.152-3.15c.072-1.116.498-1.986 1.278-2.61.792-.624 1.8-.936 3.024-.936.84 0 1.566.15 2.178.45.612.3 1.074.708 1.386 1.224.312.516.468 1.098.468 1.746 0 .744-.198 1.38-.594 1.908-.396.528-.87.882-1.422 1.062v.072c.708.216 1.26.612 1.656 1.188.396.564.594 1.29.594 2.178 0 .708-.162 1.338-.486 1.89-.324.552-.804.99-1.44 1.314-.636.312-1.398.468-2.286.468-1.296 0-2.364-.33-3.204-.99-.828-.672-1.272-1.632-1.332-2.88h1.98c.048.636.294 1.158.738 1.566.444.396 1.044.594 1.8.594.732 0 1.296-.198 1.692-.594.396-.408.594-.93.594-1.566 0-.84-.27-1.434-.81-1.782-.528-.36-1.344-.54-2.448-.54h-.468v-1.692h.486c.972-.012 1.71-.174 2.214-.486.516-.312.774-.804.774-1.476 0-.576-.186-1.032-.558-1.368-.372-.348-.9-.522-1.584-.522-.672 0-1.194.174-1.566.522a2.034 2.034 0 00-.666 1.26h-1.998zm11.821 10.008c-.372 0-.684-.126-.936-.378a1.271 1.271 0 01-.378-.936c0-.372.126-.684.378-.936s.564-.378.936-.378c.36 0 .666.126.918.378s.378.564.378.936c0 .372-.126.684-.378.936a1.25 1.25 0 01-.918.378zm0-7.56c-.372 0-.684-.126-.936-.378a1.271 1.271 0 01-.378-.936c0-.372.126-.684.378-.936s.564-.378.936-.378c.36 0 .666.126.918.378s.378.564.378.936c0 .372-.126.684-.378.936a1.25 1.25 0 01-.918.378zm3.278-2.448c.072-1.116.498-1.986 1.278-2.61.792-.624 1.8-.936 3.024-.936.84 0 1.566.15 2.178.45.612.3 1.074.708 1.386 1.224.312.516.468 1.098.468 1.746 0 .744-.198 1.38-.594 1.908-.396.528-.87.882-1.422 1.062v.072c.708.216 1.26.612 1.656 1.188.396.564.594 1.29.594 2.178 0 .708-.162 1.338-.486 1.89-.324.552-.804.99-1.44 1.314-.636.312-1.398.468-2.286.468-1.296 0-2.364-.33-3.204-.99-.828-.672-1.272-1.632-1.332-2.88h1.98c.048.636.294 1.158.738 1.566.444.396 1.044.594 1.8.594.732 0 1.296-.198 1.692-.594.396-.408.594-.93.594-1.566 0-.84-.27-1.434-.81-1.782-.528-.36-1.344-.54-2.448-.54h-.468v-1.692h.486c.972-.012 1.71-.174 2.214-.486.516-.312.774-.804.774-1.476 0-.576-.186-1.032-.558-1.368-.372-.348-.9-.522-1.584-.522-.672 0-1.194.174-1.566.522a2.034 2.034 0 00-.666 1.26h-1.998zm10.724 3.15c0-2.076.348-3.696 1.044-4.86.708-1.176 1.92-1.764 3.636-1.764 1.716 0 2.922.588 3.618 1.764.708 1.164 1.062 2.784 1.062 4.86 0 2.1-.354 3.744-1.062 4.932-.696 1.176-1.902 1.764-3.618 1.764s-2.928-.588-3.636-1.764c-.696-1.188-1.044-2.832-1.044-4.932zm7.344 0c0-.972-.066-1.794-.198-2.466-.12-.672-.372-1.218-.756-1.638-.384-.432-.954-.648-1.71-.648s-1.326.216-1.71.648c-.384.42-.642.966-.774 1.638-.12.672-.18 1.494-.18 2.466 0 1.008.06 1.854.18 2.538.12.684.372 1.236.756 1.656.396.42.972.63 1.728.63s1.326-.21 1.71-.63c.396-.42.654-.972.774-1.656.12-.684.18-1.53.18-2.538zM22 14.5L0 27V2l22 12.5z" fill="#fff"/><path stroke="#fff" stroke-width="2" d="M67 13h317"/><path stroke="#7A66CC" stroke-width="2" d="M67 13h70m0-9v20"/></svg>