<svg width="166" height="11" fill="none" xmlns="http://www.w3.org/2000/svg"><path opacity=".5" d="M5.388.848c.875 0 1.655.2 2.34.598a4.01 4.01 0 011.586 1.638c.38.693.572 1.486.572 2.379s-.191 1.69-.572 2.392a4.118 4.118 0 01-1.586 1.638c-.685.39-1.465.585-2.34.585-.884 0-1.669-.195-2.353-.585a4.21 4.21 0 01-1.6-1.638c-.38-.702-.571-1.5-.571-2.392 0-.893.19-1.686.572-2.379a4.097 4.097 0 011.599-1.638c.684-.399 1.469-.598 2.353-.598zm0 .52c-.806 0-1.508.173-2.106.52a3.426 3.426 0 00-1.378 1.43c-.321.615-.481 1.33-.481 2.145 0 .806.16 1.521.48 2.145a3.51 3.51 0 001.379 1.443c.598.347 1.3.52 2.106.52.797 0 1.49-.173 2.08-.52a3.51 3.51 0 001.378-1.443c.32-.624.48-1.339.48-2.145 0-.815-.16-1.53-.48-2.145a3.426 3.426 0 00-1.378-1.43c-.59-.347-1.283-.52-2.08-.52zm-.026 1.079c-.52 0-.997.121-1.43.364a2.64 2.64 0 00-1.014 1.053c-.252.45-.377.98-.377 1.586 0 .607.125 1.14.377 1.599.25.45.589.802 1.014 1.053.433.243.91.364 1.43.364.65 0 1.213-.173 1.69-.52a2.65 2.65 0 00.975-1.417H6.935c-.26.72-.785 1.079-1.573 1.079-.52 0-.945-.186-1.274-.559-.33-.373-.494-.901-.494-1.586 0-.693.164-1.226.494-1.599.329-.373.754-.559 1.274-.559.38 0 .71.095.988.286.277.182.472.446.585.793h1.092c-.165-.615-.486-1.092-.962-1.43-.477-.338-1.045-.507-1.703-.507zm12.755 6.604a61.535 61.535 0 002.587-2.171 10.593 10.593 0 001.573-1.781c.433-.624.65-1.235.65-1.833 0-.563-.139-1.005-.416-1.326-.269-.33-.706-.494-1.313-.494-.59 0-1.049.186-1.378.559-.32.364-.494.854-.52 1.469h-1.144c.035-.97.33-1.72.884-2.249.555-.529 1.27-.793 2.145-.793.893 0 1.6.247 2.12.741.528.494.792 1.174.792 2.041 0 .72-.217 1.421-.65 2.106a9.279 9.279 0 01-1.456 1.794 38.187 38.187 0 01-2.093 1.794h4.472v.988h-6.253v-.845zm7.62-3.848c0-1.49.243-2.652.729-3.484C26.95.879 27.8.458 29.014.458c1.204 0 2.05.42 2.535 1.261.485.832.728 1.993.728 3.484 0 1.517-.243 2.695-.728 3.536-.486.84-1.33 1.261-2.535 1.261-1.214 0-2.063-.42-2.548-1.261-.486-.84-.728-2.02-.728-3.536zm5.37 0c0-.754-.052-1.391-.156-1.911-.096-.529-.3-.953-.611-1.274-.304-.32-.746-.481-1.326-.481-.59 0-1.04.16-1.352.481-.304.32-.507.745-.611 1.274-.096.52-.143 1.157-.143 1.911 0 .78.047 1.434.143 1.963.104.529.307.953.61 1.274.313.32.763.481 1.353.481.58 0 1.022-.16 1.326-.481.312-.32.515-.745.61-1.274.105-.529.157-1.183.157-1.963zm2.65 3.848a61.535 61.535 0 002.588-2.171 10.588 10.588 0 001.573-1.781c.433-.624.65-1.235.65-1.833 0-.563-.139-1.005-.416-1.326-.269-.33-.707-.494-1.313-.494-.59 0-1.049.186-1.378.559-.32.364-.494.854-.52 1.469h-1.144c.034-.97.33-1.72.884-2.249.554-.529 1.27-.793 2.145-.793.892 0 1.599.247 2.119.741.528.494.793 1.174.793 2.041 0 .72-.217 1.421-.65 2.106a9.275 9.275 0 01-1.456 1.794 38.15 38.15 0 01-2.093 1.794h4.472v.988h-6.253v-.845zm7.621-3.848c0-1.49.243-2.652.728-3.484.486-.84 1.335-1.261 2.548-1.261 1.205 0 2.05.42 2.535 1.261.486.832.728 1.993.728 3.484 0 1.517-.242 2.695-.728 3.536-.485.84-1.33 1.261-2.535 1.261-1.213 0-2.062-.42-2.548-1.261-.485-.84-.728-2.02-.728-3.536zm5.37 0c0-.754-.053-1.391-.157-1.911-.095-.529-.299-.953-.61-1.274-.304-.32-.746-.481-1.327-.481-.59 0-1.04.16-1.352.481-.303.32-.507.745-.61 1.274-.096.52-.144 1.157-.144 1.911 0 .78.048 1.434.143 1.963.104.529.308.953.611 1.274.312.32.763.481 1.352.481.58 0 1.023-.16 1.326-.481.312-.32.516-.745.611-1.274.104-.529.156-1.183.156-1.963zM56.022.939c.988 0 1.842.186 2.561.559a3.798 3.798 0 011.664 1.573c.39.685.585 1.49.585 2.418 0 .927-.195 1.733-.585 2.418a3.819 3.819 0 01-1.664 1.56c-.72.355-1.573.533-2.56.533h-2.822V.939h2.821zm0 8.086c1.17 0 2.063-.308 2.678-.923.615-.624.923-1.495.923-2.613 0-1.127-.312-2.006-.936-2.639-.615-.633-1.504-.949-2.665-.949h-1.638v7.124h1.638zM66.957.939v6.695c0 .745-.23 1.343-.69 1.794-.459.442-1.065.663-1.82.663-.762 0-1.373-.225-1.832-.676-.46-.46-.69-1.083-.69-1.872h1.184c.008.442.12.802.338 1.079.225.277.559.416 1 .416.443 0 .772-.13.989-.39.216-.269.325-.607.325-1.014V.939h1.196zM77.29 5.333c.33.052.628.186.897.403.277.217.494.485.65.806.165.32.247.663.247 1.027 0 .46-.117.875-.351 1.248-.234.364-.576.654-1.027.871-.442.208-.966.312-1.573.312h-3.38V.939h3.25c.615 0 1.14.104 1.573.312.433.2.758.472.975.819.217.347.325.737.325 1.17 0 .537-.147.984-.442 1.339-.286.347-.667.598-1.144.754zm-3.354-.481h1.989c.555 0 .984-.13 1.287-.39.303-.26.455-.62.455-1.079 0-.46-.152-.819-.455-1.079-.303-.26-.741-.39-1.313-.39h-1.963v2.938zm2.093 4.173c.59 0 1.049-.139 1.378-.416.33-.277.494-.663.494-1.157 0-.503-.173-.897-.52-1.183-.347-.295-.81-.442-1.391-.442h-2.054v3.198h2.093zm9.468.975l-2.158-3.705h-1.43V10h-1.183V.939h2.925c.684 0 1.26.117 1.729.351.476.234.832.55 1.066.949.234.399.35.854.35 1.365 0 .624-.181 1.174-.545 1.651-.356.477-.893.793-1.612.949L86.914 10h-1.417zm-3.588-4.654h1.742c.64 0 1.122-.156 1.443-.468.32-.32.48-.745.48-1.274 0-.537-.16-.953-.48-1.248-.312-.295-.793-.442-1.443-.442h-1.742v3.432zM89.818.939V10h-1.183V.939h1.183zm8.88 2.626a2.776 2.776 0 00-1.092-1.222c-.477-.295-1.031-.442-1.664-.442s-1.205.147-1.716.442a3.078 3.078 0 00-1.196 1.248c-.286.537-.429 1.161-.429 1.872 0 .71.143 1.335.429 1.872a3.19 3.19 0 001.196 1.248 3.454 3.454 0 001.716.429c.884 0 1.612-.264 2.184-.793.572-.529.906-1.244 1.001-2.145h-3.614v-.962h4.875v.91a4.534 4.534 0 01-.702 2.054 4.414 4.414 0 01-1.573 1.469 4.45 4.45 0 01-2.171.533c-.84 0-1.608-.195-2.301-.585a4.439 4.439 0 01-1.651-1.651c-.399-.702-.598-1.495-.598-2.379 0-.884.2-1.677.598-2.379a4.316 4.316 0 011.651-1.651 4.533 4.533 0 012.301-.598c.962 0 1.811.238 2.548.715.745.477 1.287 1.148 1.625 2.015h-1.417zM108.933.939V10h-1.183V5.892h-4.615V10h-1.183V.939h1.183v3.978h4.615V.939h1.183zm7.597 0v.962h-2.47V10h-1.183V1.901h-2.483V.939h6.136zm6.105 8.099h3.172V10h-4.355V.939h1.183v8.099zm5.612-8.099V10h-1.183V.939h1.183zm8.88 2.626a2.784 2.784 0 00-1.092-1.222c-.477-.295-1.032-.442-1.664-.442a3.37 3.37 0 00-1.716.442 3.072 3.072 0 00-1.196 1.248c-.286.537-.429 1.161-.429 1.872 0 .71.143 1.335.429 1.872.294.537.693.953 1.196 1.248a3.453 3.453 0 001.716.429c.884 0 1.612-.264 2.184-.793.572-.529.905-1.244 1.001-2.145h-3.614v-.962h4.875v.91a4.558 4.558 0 01-.702 2.054 4.416 4.416 0 01-1.573 1.469 4.452 4.452 0 01-2.171.533 4.61 4.61 0 01-2.301-.585 4.432 4.432 0 01-1.651-1.651c-.399-.702-.598-1.495-.598-2.379 0-.884.199-1.677.598-2.379a4.31 4.31 0 011.651-1.651 4.532 4.532 0 012.301-.598c.962 0 1.811.238 2.548.715.745.477 1.287 1.148 1.625 2.015h-1.417zM147.362.939V10h-1.183V5.892h-4.615V10h-1.183V.939h1.183v3.978h4.615V.939h1.183zm7.597 0v.962h-2.47V10h-1.183V1.901h-2.483V.939h6.136zm4.329 9.152a3.993 3.993 0 01-1.612-.312 2.756 2.756 0 01-1.105-.884 2.296 2.296 0 01-.416-1.313h1.261a1.7 1.7 0 00.52 1.079c.312.286.763.429 1.352.429.563 0 1.005-.139 1.326-.416.329-.286.494-.65.494-1.092 0-.347-.095-.628-.286-.845a1.83 1.83 0 00-.715-.494 11.197 11.197 0 00-1.157-.364 10.511 10.511 0 01-1.443-.468 2.399 2.399 0 01-.923-.728c-.251-.338-.377-.789-.377-1.352 0-.494.126-.932.377-1.313a2.459 2.459 0 011.053-.884c.459-.208.984-.312 1.573-.312.849 0 1.543.212 2.08.637.546.425.854.988.923 1.69h-1.3c-.043-.347-.225-.65-.546-.91-.321-.269-.745-.403-1.274-.403-.494 0-.897.13-1.209.39-.312.251-.468.607-.468 1.066 0 .33.091.598.273.806.191.208.42.368.689.481.277.104.663.225 1.157.364.598.165 1.079.33 1.443.494.364.156.676.403.936.741.26.33.39.78.39 1.352 0 .442-.117.858-.351 1.248-.234.39-.581.706-1.04.949-.459.243-1.001.364-1.625.364zm5.134-.013a.779.779 0 01-.572-.234.778.778 0 01-.234-.572c0-.225.078-.416.234-.572a.779.779 0 01.572-.234.72.72 0 01.546.234.778.778 0 01.234.572.778.778 0 01-.234.572.72.72 0 01-.546.234z" fill="#fff"/></svg>