<svg width="651" height="72" fill="none" xmlns="http://www.w3.org/2000/svg"><path d="M100.8.8l.968.252.326-1.252H100.8v1zM82.5 71v1h.773l.195-.748L82.5 71zm-20.7 0l-.972.236.185.764h.787v-1zM50.6 24.8l.972-.236-1.942-.008.97.244zM39 71v1h.78l.19-.757L39 71zm-20.7 0l-.97.246.192.754h.778v-1zM.5.8v-1H-.785l.316 1.246L.5.8zm18.3 0l.981-.194-.16-.806H18.8v1zm10.1 51.1l-.981.194 1.952.044-.971-.238zM41.4.8v-1h-.785l-.186.762L41.4.8zm18.8 0l.973-.229-.18-.771H60.2v1zm12 51.1l-.974.229 1.955-.033-.981-.196zM82.4.8v-1h-.82l-.16.804.98.196zM99.832.548l-18.3 70.2 1.936.504 18.3-70.2-1.936-.504zM82.5 70H61.8v2h20.7v-2zm-19.728.764l-11.2-46.2-1.944.472 11.2 46.2 1.944-.472zM49.63 24.557l-11.6 46.2 1.94.486 11.6-46.2-1.94-.486zM39 70H18.3v2H39v-2zm-19.73.754L1.47.554l-1.94.492 17.8 70.2 1.94-.492zM.5 1.8h18.3v-2H.5v2zM17.819.994l10.1 51.1 1.962-.388-10.1-51.1-1.962.388zm12.052 51.144l12.5-51.1L40.43.562l-12.5 51.1 1.942.476zM41.4 1.8h18.8v-2H41.4v2zm17.827-.771l12 51.1 1.947-.458-12-51.1-1.947.458zM73.18 52.096l10.2-51.1-1.962-.392-10.2 51.1 1.962.392zM82.4 1.8h18.4v-2H82.4v2zm26.776 26.1l-.892-.453-.005.011.897.442zm8.9-10l.53.848-.53-.848zm22.8-1.1l-.479.878.008.004.471-.882zm6.9 6.3l-.852.524 1.852 3.009V23.1h-1zm0-7.9v-1h-1v1h1zm17.1 0h1v-1h-1v1zm0 55.8v1h1v-1h-1zm-17.1 0h-1v1h1v-1zm0-7.9h1v-3.413l-1.842 2.873.842.54zm-7 6.3l-.471-.882-.008.004.479.878zm-22.7-1.1l-.541.841.011.007.53-.848zm-8.9-10.1l-.9.436.004.008.004.009.892-.453zm35-25.2l-.727.687.01.01.717-.697zm-17.3 0l-.717-.697.717.697zm0 20.2l-.736.677.01.01.009.01.717-.697zm17.3 0l-.717-.697-.01.01.727.687zm-37.2-10.2c0-5.609 1.043-10.486 3.097-14.658l-1.794-.884c-2.213 4.495-3.303 9.684-3.303 15.542h2zm3.091-14.647c2.127-4.189 4.975-7.378 8.539-9.605l-1.06-1.696c-3.904 2.44-6.988 5.917-9.262 10.395l1.783.906zm8.539-9.605c3.567-2.23 7.548-3.348 11.97-3.348v-2c-4.779 0-9.131 1.215-13.03 3.652l1.06 1.696zm11.97-3.348c3.796 0 7.059.771 9.821 2.278l.958-1.756c-3.105-1.693-6.708-2.522-10.779-2.522v2zm9.829 2.282c2.862 1.527 5.022 3.51 6.519 5.942l1.703-1.048c-1.703-2.768-4.142-4.985-7.281-6.658l-.941 1.764zm8.371 5.418v-7.9h-2v7.9h2zm-1-6.9h17.1v-2h-17.1v2zm16.1-1V71h2V15.2h-2zm1 54.8h-17.1v2h17.1v-2zm-16.1 1v-7.9h-2V71h2zm-1.842-8.44c-1.565 2.442-3.764 4.43-6.629 5.958l.941 1.764c3.136-1.672 5.604-3.884 7.372-6.642l-1.684-1.08zm-6.637 5.962c-2.762 1.507-6.026 2.278-9.821 2.278v2c4.071 0 7.674-.829 10.779-2.522l-.958-1.756zm-9.821 2.278c-4.352 0-8.301-1.117-11.87-3.348l-1.06 1.696c3.897 2.436 8.215 3.652 12.93 3.652v-2zm-11.859-3.341c-3.57-2.295-6.422-5.521-8.55-9.712l-1.783.906c2.273 4.476 5.354 7.983 9.251 10.488l1.082-1.682zm-8.541-9.695c-2.057-4.243-3.1-9.156-3.1-14.764h-2c0 5.858 1.09 11.079 3.3 15.636l1.8-.872zm38.7-14.664c0-4.461-1.261-8.102-3.883-10.797l-1.434 1.394c2.177 2.238 3.317 5.33 3.317 9.403h2zm-3.874-10.787c-2.522-2.667-5.652-4.013-9.326-4.013v2c3.125 0 5.729 1.12 7.873 3.387l1.453-1.374zm-9.326-4.013c-3.674 0-6.831 1.345-9.417 4.003l1.434 1.394c2.214-2.276 4.856-3.397 7.983-3.397v-2zm-9.417 4.003c-2.561 2.634-3.783 6.245-3.783 10.697h2c0-4.081 1.111-7.137 3.217-9.303l-1.434-1.394zM122.376 43c0 4.455 1.223 8.118 3.764 10.877l1.471-1.355c-2.125-2.307-3.235-5.444-3.235-9.522h-2zm3.783 10.897c2.586 2.658 5.743 4.003 9.417 4.003v-2c-3.127 0-5.769-1.121-7.983-3.397l-1.434 1.394zm9.417 4.003c3.674 0 6.804-1.346 9.326-4.013l-1.453-1.374c-2.144 2.267-4.748 3.387-7.873 3.387v2zm9.317-4.003c2.622-2.695 3.883-6.336 3.883-10.797h-2c0 4.072-1.14 7.165-3.317 9.403l1.434 1.394zM194.347 24.5h-1v3.364l1.837-2.818-.837-.546zm7.5-7.2l.5.866.007-.004.007-.005-.514-.857zm10-2.7h1v-1h-1v1zm0 18.1v1h1v-1h-1zm-14.3 2.8l.645.764.007-.006.006-.005-.658-.753zm-3.2 35.5v1h1v-1h-1zm-17.1 0h-1v1h1v-1zm0-55.8v-1h-1v1h1zm17.1 0h1v-1h-1v1zm.837 9.846c1.92-2.942 4.307-5.23 7.163-6.88l-1-1.732c-3.144 1.816-5.757 4.33-7.838 7.52l1.675 1.092zm7.177-6.889c2.837-1.702 5.991-2.557 9.486-2.557v-2c-3.839 0-7.352.945-10.515 2.842l1.029 1.715zm8.486-3.557v18.1h2V14.6h-2zm1 17.1h-4.7v2h4.7v-2zm-4.7 0c-4.391 0-7.87.957-10.259 3.047l1.317 1.506c1.879-1.644 4.799-2.553 8.942-2.553v-2zm-10.245 3.036c-2.47 2.084-3.555 5.656-3.555 10.364h2c0-4.492 1.048-7.32 2.845-8.836l-1.29-1.528zM193.347 45.1V71h2V45.1h-2zm1 24.9h-17.1v2h17.1v-2zm-16.1 1V15.2h-2V71h2zm-1-54.8h17.1v-2h-17.1v2zm16.1-1v9.3h2v-9.3h-2zM286.912.8h1v-1h-1v1zm0 13.7v1h1v-1h-1zm-28.6 0v-1h-1v1h1zm0 14.8h-1v1h1v-1zm21.4 0h1v-1h-1v1zm0 13.3v1h1v-1h-1zm-21.4 0v-1h-1v1h1zm0 28.4v1h1v-1h-1zm-17.1 0h-1v1h1v-1zm0-70.2v-1h-1v1h1zm44.7 0v13.7h2V.8h-2zm1 12.7h-28.6v2h28.6v-2zm-29.6 1v14.8h2V14.5h-2zm1 15.8h21.4v-2h-21.4v2zm20.4-1v13.3h2V29.3h-2zm1 12.3h-21.4v2h21.4v-2zm-22.4 1V71h2V42.6h-2zm1 27.4h-17.1v2h17.1v-2zm-16.1 1V.8h-2V71h2zm-1-69.2h45.7v-2h-45.7v2zm65.287 66.5l-.474.88.006.003.468-.883zm-10.3-10l-.869.495.006.01.863-.505zm.1-30.3l.864.505.003-.006-.867-.499zm10.4-10.1l.469.884-.469-.884zm29.6 0l-.468.884.468-.884zm10.4 10.1l-.866.499.003.006.863-.505zm-.1 30.3l-.861-.509-.002.004.863.505zm-10.5 10l-.463-.886-.005.002.468.884zm-6.5-14.9l-.717-.697-.005.005-.005.005.727.687zm.1-20.6l-.737.676.005.005.005.006.727-.687zm-16.5 0l.728.686.009-.01-.737-.676zm-.1 20.6l-.747.664.005.006.005.006.737-.676zm8.2 17.4c-5.319 0-10.089-1.134-14.331-3.383l-.937 1.766c4.558 2.418 9.654 3.617 15.268 3.617v-2zm-14.326-3.38c-4.168-2.245-7.468-5.447-9.91-9.625l-1.727 1.01c2.624 4.488 6.191 7.953 10.689 10.375l.948-1.76zm-9.905-9.615c-2.367-4.16-3.569-9.05-3.569-14.705h-2c0 5.945 1.266 11.188 3.831 15.695l1.738-.99zM293.499 43.1c0-5.582 1.232-10.436 3.664-14.595l-1.727-1.01c-2.635 4.507-3.937 9.72-3.937 15.605h2zm3.667-14.601c2.441-4.24 5.771-7.472 10.002-9.715l-.937-1.767c-4.57 2.423-8.173 5.924-10.798 10.484l1.733.998zm10.002-9.715c4.242-2.25 9.012-3.384 14.331-3.384v-2c-5.614 0-10.71 1.2-15.268 3.617l.937 1.767zm14.331-3.384c5.32 0 10.09 1.134 14.332 3.383l.937-1.767c-4.558-2.417-9.655-3.616-15.269-3.616v2zm14.332 3.383c4.23 2.244 7.56 5.476 10.002 9.716l1.733-.998c-2.625-4.56-6.229-8.061-10.798-10.485l-.937 1.768zm10.005 9.722c2.432 4.16 3.663 9.013 3.663 14.595h2c0-5.885-1.302-11.098-3.936-15.605l-1.727 1.01zm3.663 14.595c0 5.577-1.262 10.463-3.761 14.691l1.722 1.018c2.702-4.572 4.039-9.819 4.039-15.709h-2zm-3.763 14.695c-2.438 4.17-5.799 7.372-10.1 9.619l.926 1.772c4.633-2.42 8.272-5.885 10.901-10.381l-1.727-1.01zm-10.105 9.621c-4.242 2.25-9.012 3.384-14.332 3.384v2c5.614 0 10.711-1.2 15.269-3.617l-.937-1.767zM321.299 58c3.545 0 6.574-1.316 9.027-3.913l-1.454-1.374c-2.08 2.203-4.585 3.287-7.573 3.287v2zm9.017-3.903c2.569-2.642 3.783-6.36 3.783-10.997h-2c0 4.296-1.119 7.445-3.217 9.603l1.434 1.394zm3.783-10.997c0-4.63-1.177-8.343-3.673-10.987l-1.454 1.374c2.037 2.157 3.127 5.31 3.127 9.613h2zm-3.663-10.976c-2.39-2.607-5.391-3.924-8.937-3.924v2c2.988 0 5.453 1.083 7.463 3.276l1.474-1.352zm-8.937-3.924c-3.606 0-6.642 1.312-9.037 3.924l1.474 1.352c2.006-2.188 4.503-3.276 7.563-3.276v-2zm-9.027 3.914c-2.436 2.584-3.573 6.303-3.573 10.986h2c0-4.384 1.064-7.531 3.028-9.614l-1.455-1.372zM308.899 43.1c0 4.616 1.103 8.32 3.453 10.964l1.495-1.328c-1.917-2.157-2.948-5.319-2.948-9.636h-2zm3.463 10.976c2.39 2.607 5.391 3.924 8.937 3.924v-2c-2.987 0-5.453-1.083-7.463-3.276l-1.474 1.352zM376.671 24.5h-1v3.364l1.838-2.818-.838-.546zm7.5-7.2l.5.866.008-.004.007-.005-.515-.857zm10-2.7h1v-1h-1v1zm0 18.1v1h1v-1h-1zm-14.3 2.8l.645.764.007-.006.007-.005-.659-.753zm-3.2 35.5v1h1v-1h-1zm-17.1 0h-1v1h1v-1zm0-55.8v-1h-1v1h1zm17.1 0h1v-1h-1v1zm.838 9.846c1.919-2.942 4.306-5.23 7.162-6.88l-1-1.732c-3.144 1.816-5.757 4.33-7.838 7.52l1.676 1.092zm7.177-6.889c2.837-1.702 5.991-2.557 9.485-2.557v-2c-3.839 0-7.351.945-10.514 2.842l1.029 1.715zm8.485-3.557v18.1h2V14.6h-2zm1 17.1h-4.7v2h4.7v-2zm-4.7 0c-4.39 0-7.87.957-10.258 3.047l1.317 1.506c1.878-1.644 4.798-2.553 8.941-2.553v-2zm-10.245 3.036c-2.47 2.084-3.555 5.656-3.555 10.364h2c0-4.492 1.048-7.32 2.845-8.836l-1.29-1.528zM375.671 45.1V71h2V45.1h-2zm1 24.9h-17.1v2h17.1v-2zm-16.1 1V15.2h-2V71h2zm-1-54.8h17.1v-2h-17.1v2zm16.1-1v9.3h2v-9.3h-2zm64.965 42.6h-1v1h1v-1zm22.4 0h1v-1h-1v1zm0 13.2v1h1v-1h-1zm-39.5 0h-1v1h1v-1zm0-70.2v-1h-1v1h1zm17.1 0h1v-1h-1v1zm0 58h22.4v-2h-22.4v2zm21.4-1V71h2V57.8h-2zm1 12.2h-39.5v2h39.5v-2zm-38.5 1V.8h-2V71h2zm-1-69.2h17.1v-2h-17.1v2zm16.1-1v57h2V.8h-2zm42.156 67.5l-.474.88.006.003.468-.883zm-10.3-10l-.869.495.006.01.863-.505zm.1-30.3l.864.505.003-.006-.867-.499zm10.4-10.1l.469.884-.469-.884zm29.6 0l-.468.884.468-.884zm10.4 10.1l-.866.499.003.006.863-.505zm-.1 30.3l-.861-.509-.002.004.863.505zm-10.5 10l-.463-.886-.005.002.468.884zm-6.5-14.9l-.717-.697-.005.005-.005.005.727.687zm.1-20.6l-.737.676.005.005.005.006.727-.687zm-16.5 0l.728.686.009-.01-.737-.676zm-.1 20.6l-.747.664.005.006.005.006.737-.676zm8.2 17.4c-5.319 0-10.089-1.134-14.331-3.383l-.937 1.766c4.558 2.418 9.654 3.617 15.268 3.617v-2zm-14.326-3.38c-4.168-2.245-7.468-5.447-9.911-9.625l-1.726 1.01c2.624 4.488 6.191 7.953 10.689 10.375l.948-1.76zm-9.905-9.615c-2.368-4.16-3.569-9.05-3.569-14.705h-2c0 5.945 1.266 11.188 3.831 15.695l1.738-.99zM468.792 43.1c0-5.582 1.232-10.436 3.663-14.595l-1.726-1.01c-2.635 4.507-3.937 9.72-3.937 15.605h2zm3.667-14.601c2.441-4.24 5.771-7.472 10.002-9.715l-.937-1.767c-4.57 2.423-8.173 5.924-10.798 10.484l1.733.998zm10.002-9.715c4.242-2.25 9.012-3.384 14.331-3.384v-2c-5.614 0-10.71 1.2-15.268 3.617l.937 1.767zm14.331-3.384c5.32 0 10.09 1.134 14.332 3.383l.937-1.767c-4.558-2.417-9.655-3.616-15.269-3.616v2zm14.332 3.383c4.23 2.244 7.56 5.476 10.002 9.716l1.733-.998c-2.625-4.56-6.229-8.061-10.798-10.485l-.937 1.768zm10.005 9.722c2.432 4.16 3.663 9.013 3.663 14.595h2c0-5.885-1.302-11.098-3.937-15.605l-1.726 1.01zm3.663 14.595c0 5.577-1.263 10.463-3.761 14.691l1.722 1.018c2.702-4.572 4.039-9.819 4.039-15.709h-2zm-3.763 14.695c-2.438 4.17-5.799 7.372-10.1 9.619l.926 1.772c4.633-2.42 8.272-5.885 10.9-10.381l-1.726-1.01zm-10.105 9.621c-4.242 2.25-9.012 3.384-14.332 3.384v2c5.614 0 10.711-1.2 15.269-3.617l-.937-1.767zM496.592 58c3.545 0 6.574-1.316 9.027-3.913l-1.454-1.374c-2.08 2.203-4.585 3.287-7.573 3.287v2zm9.017-3.903c2.569-2.642 3.783-6.36 3.783-10.997h-2c0 4.296-1.119 7.445-3.217 9.603l1.434 1.394zm3.783-10.997c0-4.63-1.177-8.343-3.673-10.987l-1.454 1.374c2.037 2.157 3.127 5.31 3.127 9.613h2zm-3.663-10.976c-2.39-2.607-5.391-3.924-8.937-3.924v2c2.988 0 5.453 1.083 7.463 3.276l1.474-1.352zm-8.937-3.924c-3.606 0-6.642 1.312-9.037 3.924l1.474 1.352c2.006-2.188 4.503-3.276 7.563-3.276v-2zm-9.027 3.914c-2.436 2.584-3.573 6.303-3.573 10.986h2c0-4.384 1.064-7.531 3.028-9.614l-1.455-1.372zM484.192 43.1c0 4.616 1.103 8.32 3.453 10.964l1.495-1.328c-1.917-2.157-2.948-5.319-2.948-9.636h-2zm3.463 10.976c2.39 2.607 5.391 3.924 8.937 3.924v-2c-2.987 0-5.453-1.083-7.463-3.276l-1.474 1.352zm72.309.924l-.957.29.957 3.148.957-3.147-.957-.291zm12.1-39.8v-1h-.741l-.216.71.957.29zm18.2 0l.942.334.474-1.334h-1.416v1zm-19.8 55.8v1h.706l.236-.666-.942-.334zm-21.1 0l-.942.334.236.666h.706v-1zm-19.8-55.8v-1h-1.416l.474 1.334.942-.334zm18.3 0l.957-.29-.216-.71h-.741v1zm13.057 40.09l12.1-39.8-1.914-.58-12.1 39.8 1.914.58zm11.143-39.09h18.2v-2h-18.2v2zm17.258-1.334l-19.8 55.8 1.884.668 19.8-55.8-1.884-.668zM570.464 70h-21.1v2h21.1v-2zm-20.157.666l-19.801-55.8-1.884.668 19.8 55.8 1.885-.668zM529.564 16.2h18.3v-2h-18.3v2zm17.343-.71l12.1 39.8 1.914-.58-12.1-39.8-1.914.58zM649.762 47.2v1h.891l.102-.885-.993-.115zm-38.7 0v-1h-1.08l.083 1.077.997-.077zm3.3 8l-.695.72.013.012.013.011.669-.743zm16.2-2.7v-1h-.639l-.269.58.908.42zm18.2 0l.969.247.317-1.247h-1.286v1zm-5.1 9.9l-.766-.644-.008.01.774.634zm-9.1 6.9l.414.91-.414-.91zm-26.9-1l-.48.877.48-.877zm-10-10l.874-.484-.874.484zm-.1-30.4l-.875-.484-.006.01.881.474zm10-10l.48.877-.48-.877zm29.1-.1l-.475.88.475-.88zm9.8 9.7l-.874.486.006.01.868-.496zm-13.9 10.2v1h1v-1h-1zm-3-7l.655-.756-.655.756zm-14.8-.1l-.64-.768-.007.005-.006.006.653.757zm-3.6 7.1l-.989-.15-.175 1.15h1.164v-1zm37.9 4.5a42.66 42.66 0 01-.294 4.885l1.987.23c.204-1.768.307-3.473.307-5.115h-2zm.7 4h-38.7v2h38.7v-2zm-39.697 1.077c.279 3.637 1.446 6.56 3.602 8.642l1.389-1.438c-1.71-1.652-2.744-4.062-2.997-7.358l-1.994.154zm3.628 8.666c2.196 1.977 4.873 2.957 7.969 2.957v-2c-2.638 0-4.828-.82-6.631-2.443l-1.338 1.486zm7.969 2.957c2.274 0 4.271-.48 5.943-1.495 1.677-1.017 2.96-2.531 3.864-4.485l-1.815-.84c-.762 1.646-1.796 2.832-3.086 3.615-1.295.786-2.914 1.205-4.906 1.205v2zm8.9-5.4h18.2v-2h-18.2v2zm17.231-1.247c-.896 3.52-2.526 6.684-4.897 9.503l1.531 1.288c2.562-3.047 4.333-6.483 5.304-10.297l-1.938-.494zm-4.905 9.514c-2.297 2.807-5.204 5.015-8.74 6.623l.828 1.82c3.797-1.726 6.956-4.117 9.46-7.177l-1.548-1.266zm-8.74 6.623c-3.521 1.6-7.478 2.41-11.886 2.41v2c4.658 0 8.901-.857 12.714-2.59l-.828-1.82zm-11.886 2.41c-5.32 0-10.018-1.134-14.12-3.377l-.96 1.754c4.431 2.424 9.466 3.623 15.08 3.623v-2zm-14.12-3.377c-4.098-2.241-7.295-5.437-9.606-9.608l-1.749.97c2.49 4.495 5.959 7.966 10.395 10.392l.96-1.754zm-9.606-9.608c-2.304-4.161-3.474-9.055-3.474-14.715h-2c0 5.94 1.23 11.18 3.725 15.684l1.749-.968zM595.062 43.1c0-5.664 1.138-10.562 3.38-14.726l-1.761-.948c-2.424 4.503-3.619 9.738-3.619 15.674h2zm3.375-14.716c2.31-4.17 5.507-7.366 9.605-9.607l-.96-1.754c-4.436 2.426-7.905 5.897-10.395 10.393l1.75.968zm9.605-9.607c4.1-2.242 8.831-3.377 14.22-3.377v-2c-5.678 0-10.747 1.198-15.18 3.623l.96 1.754zm14.22-3.377c5.256 0 9.889 1.102 13.925 3.28l.95-1.76c-4.365-2.355-9.332-3.52-14.875-3.52v2zm13.925 3.28c4.031 2.175 7.159 5.271 9.401 9.306l1.748-.972c-2.425-4.365-5.83-7.736-10.199-10.094l-.95 1.76zm9.407 9.316c2.3 4.027 3.468 8.75 3.468 14.204h2c0-5.746-1.233-10.823-3.732-15.196l-1.736.992zM633.562 37.7c0-3.188-1.101-5.81-3.345-7.756l-1.31 1.512c1.755 1.521 2.655 3.565 2.655 6.244h2zm-3.345-7.756c-2.207-1.912-4.949-2.844-8.155-2.844v2c2.793 0 5.051.801 6.845 2.356l1.31-1.512zm-8.155-2.844c-3.076 0-5.742.9-7.94 2.732l1.28 1.536c1.802-1.501 4.002-2.268 6.66-2.268v-2zm-7.953 2.743c-2.151 1.854-3.441 4.457-3.936 7.707l1.977.3c.439-2.883 1.549-5.013 3.265-6.493l-1.306-1.514zm-2.947 8.857h21.4v-2h-21.4v2z" fill="#fff"/></svg>